<?xml version="1.0" encoding="utf-8"?>
<!-- Generator: Adobe Illustrator 17.0.1, SVG Export Plug-In . SVG Version: 6.00 Build 0)  -->
<!DOCTYPE svg PUBLIC "-//W3C//DTD SVG 1.1//EN" "http://www.w3.org/Graphics/SVG/1.1/DTD/svg11.dtd">
<svg version="1.1" id="Layer_1" xmlns="http://www.w3.org/2000/svg" xmlns:xlink="http://www.w3.org/1999/xlink" x="0px" y="0px"
	 width="489.999px" height="560px" viewBox="235 0 489.999 560" enable-background="new 235 0 489.999 560" xml:space="preserve">
<g>
	<path fill="#E62728" d="M269.999,0h297.377l157.622,157.01V525c0,19.337-15.679,35-35,35h-420c-19.321,0-35-15.663-35-35V35
		C235,15.663,250.681,0,269.999,0z"/>
	<path fill="#ff7359" d="M724.493,157.499H602.501c-19.321,0-35-15.679-35-35V0.349L724.493,157.499z"/>
	<path fill="#FFFFFF" d="M593.715,265.352c5.863,0,8.733-5.11,8.733-10.062c0-5.128-2.993-10.08-8.733-10.08h-33.39
		c-6.528,0-10.167,5.407-10.167,11.375v82.057c0,7.315,4.165,11.375,9.8,11.375c5.601,0,9.783-4.06,9.783-11.375V316.12h20.195
		c6.265,0,9.398-5.128,9.398-10.22c0-4.987-3.133-9.941-9.398-9.941h-20.195v-30.607
		C569.741,265.352,593.715,265.352,593.715,265.352z M480.857,245.209h-24.43c-6.633,0-11.341,4.55-11.341,11.304v82.198
		c0,8.382,6.772,11.007,11.619,11.007h25.638c30.344,0,50.382-19.967,50.382-50.786C532.71,266.35,513.845,245.209,480.857,245.209z
		 M482.031,329.456h-14.893v-63.98h13.423c20.318,0,29.155,13.633,29.155,32.445C509.715,315.526,501.034,329.456,482.031,329.456z
		 M392.535,245.209h-24.202c-6.843,0-10.658,4.514-10.658,11.375v82.057c0,7.315,4.375,11.375,10.254,11.375
		s10.254-4.06,10.254-11.375v-23.958h15.172c18.725,0,34.178-13.265,34.178-34.598C427.535,259.21,412.625,245.209,392.535,245.209z
		 M392.133,295.436h-13.948v-30.958h13.948c8.61,0,14.087,6.72,14.087,15.487C406.203,288.716,400.743,295.436,392.133,295.436z"/>
</g>
</svg>
