<?xml version="1.0" encoding="UTF-8"?>
<svg width="113px" height="113px" viewBox="0 0 113 113" version="1.1" xmlns="http://www.w3.org/2000/svg" xmlns:xlink="http://www.w3.org/1999/xlink">
    <!-- Generator: sketchtool 46.1 (44463) - http://www.bohemiancoding.com/sketch -->
    <title>27EB0E60-8343-41DD-AF71-EDA8E92EF786</title>
    <desc>Created with sketchtool.</desc>
    <defs></defs>
    <g id="Web" stroke="none" stroke-width="1" fill="none" fill-rule="evenodd">
        <g id="05_Construct_Region_main" transform="translate(-423.000000, -1246.000000)" stroke="#666666" stroke-width="2">
            <g id="txt" transform="translate(0.000000, 1101.000000)">
                <g id="icon" transform="translate(20.000000, 145.000000)">
                    <g id="01" transform="translate(403.000000, 0.000000)">
                        <g id="youtube-logo" transform="translate(22.000000, 32.000000)">
                            <path d="M71.9596111,19.1406485 C71.9334358,17.7345738 71.8188833,15.9567656 71.6186277,13.8088658 C71.4172462,11.6597346 71.1291764,9.73908879 70.754559,8.04679163 C70.3259021,6.1459844 69.3949877,4.5442605 67.962238,3.24216719 C66.5294883,1.93980025 64.8618639,1.18484061 62.9595056,0.976193734 C57.0126303,0.325625941 48.0261754,0 35.9998593,0 C23.9734024,0 14.9868068,0.325625941 9.0403537,0.976193734 C7.13827679,1.18470379 5.4772666,1.93980025 4.05802676,3.24216719 C2.63822402,4.54385005 1.71406457,6.14557395 1.2854077,8.04679163 C0.884052022,9.73963607 0.582331625,11.660145 0.381513058,13.8088658 C0.180975947,15.9567656 0.0669864315,17.7338897 0.0403888778,19.1406485 C0.0132284129,20.54686 0,22.4997948 0,25 C0,27.4999316 0.0132284129,29.4534136 0.0405296056,30.8593515 C0.0671271593,32.2663839 0.181116675,34.0432344 0.381653786,36.1909974 C0.582472353,38.3399918 0.870542154,40.2606376 1.24558173,41.9532084 C1.6742386,43.8545629 2.60487153,45.4560131 4.03790269,46.7575592 C5.4712153,48.0596525 7.13898043,48.8147489 9.04049442,49.023259 C14.9869475,49.6745109 23.9729803,50 36,50 C48.0274419,50 57.012771,49.6745109 62.9596463,49.023259 C64.8620047,48.8148858 66.5223112,48.0596525 67.942114,46.7575592 C69.3619167,45.4558763 70.2855132,43.8536051 70.7141701,41.9532084 C71.1158072,40.2606376 71.4172462,38.3399918 71.6186277,36.1909974 C71.8188833,34.0433712 71.9325914,32.265563 71.9596111,30.8593515 C71.9864901,29.4534136 72,27.4999316 72,25 C72,22.4997948 71.9866309,20.54686 71.9596111,19.1406485 Z" id="Shape" fill-rule="nonzero"></path>
                            <path d="M42.7709554,26.1298275 L33.1707322,32.7918815 C32.9956417,32.9306515 32.7829193,33 32.5330247,33 C32.3456529,33 32.1519107,32.9442878 31.9519293,32.833301 C31.5394882,32.5837629 31.3333333,32.1949444 31.3333333,31.6676475 L31.3333333,18.3434666 C31.3333333,17.8163156 31.5395539,17.4274971 31.9519293,17.1777403 C32.3770457,16.9275459 32.783182,16.9415469 33.1707322,17.2193786 L42.7710211,23.8815055 C43.1458959,24.1170426 43.3333333,24.492006 43.3333333,25.0055935 C43.3333333,25.5189623 43.1458303,25.8940716 42.7709554,26.1298275 Z" id="Path" fill="#FFFFFF"></path>
                        </g>
                    </g>
                </g>
            </g>
        </g>
    </g>
</svg>