<?xml version="1.0" encoding="UTF-8"?>
<svg width="113px" height="113px" viewBox="0 0 113 113" version="1.1" xmlns="http://www.w3.org/2000/svg" xmlns:xlink="http://www.w3.org/1999/xlink">
    <!-- Generator: sketchtool 46.1 (44463) - http://www.bohemiancoding.com/sketch -->
    <title>AB26E085-5C11-4682-A00D-588F14C433DC</title>
    <desc>Created with sketchtool.</desc>
    <defs></defs>
    <g id="Web" stroke="none" stroke-width="1" fill="none" fill-rule="evenodd" stroke-linecap="round" stroke-linejoin="round">
        <g id="05_Construct_Region_main" transform="translate(-104.000000, -1246.000000)" stroke="#666666" stroke-width="2">
            <g id="txt" transform="translate(0.000000, 1101.000000)">
                <g id="icon" transform="translate(20.000000, 145.000000)">
                    <g id="02" transform="translate(84.000000, 0.000000)">
                        <path d="M40.9756098,93.0532584 L44.2195122,72.6630145 L28.4634146,49.9556974 L37.7317073,29.1020389 C38.3495935,28.1752096 39.2764228,28.0207381 40.5121951,28.6386242 C41.7479675,29.2565104 49.7804878,33.7361852 64.6097561,42.0776486 L56.2682927,52.2727706" id="Path-3"></path>
                        <polyline id="Path-4" points="43.8292683 29.5654535 50.6341463 17.9069169 60.0487805 24.2361852"></polyline>
                        <polyline id="Path-5" points="53.9512195 34.1995998 62.2926829 22.1508194 71.9512195 30.0288681 63.7560976 41.0776486"></polyline>
                        <polyline id="Path-6" points="71.097561 32.8093559 78.9756098 39.2971608 78.9756098 40.6874047 65.5365854 58.7605755"></polyline>
                        <polyline id="Path-7" points="78.9756098 42.0776486 85 47.6386242 84.5365854 49.4922828 76.3414634 62.7849657 71.6341463 65.2483803 44.6829268 45.3947218"></polyline>
                        <polyline id="Path-8" points="79.902439 57.3703316 77.1219512 69.419112 70.6341463 76.3703316 71.5609756 93.0532584"></polyline>
                    </g>
                </g>
            </g>
        </g>
    </g>
</svg>