<?xml version="1.0" encoding="UTF-8"?>
<svg width="113px" height="113px" viewBox="0 0 113 113" version="1.1" xmlns="http://www.w3.org/2000/svg" xmlns:xlink="http://www.w3.org/1999/xlink">
    <!-- Generator: sketchtool 46.1 (44463) - http://www.bohemiancoding.com/sketch -->
    <title>9FA6C922-E267-4757-AB66-85C188D6AF0C</title>
    <desc>Created with sketchtool.</desc>
    <defs></defs>
    <g id="Web" stroke="none" stroke-width="1" fill="none" fill-rule="evenodd">
        <g id="05_Construct_Region_main" transform="translate(-1063.000000, -1246.000000)" stroke="#666666" stroke-width="2" fill-rule="nonzero">
            <g id="txt" transform="translate(0.000000, 1101.000000)">
                <g id="icon" transform="translate(20.000000, 145.000000)">
                    <g id="04" transform="translate(1043.000000, 0.000000)">
                        <path d="M57,25 C42.6636479,25 31,36.3797731 31,50.3675779 C31,71.2084774 54.412043,91.5578096 55.4088196,92.414103 C55.863778,92.804472 56.4316542,93 57,93 C57.5683458,93 58.1364568,92.804701 58.5911804,92.414103 C59.5874875,91.5580385 83,71.2087064 83,50.3675779 C83,36.3797731 71.3363521,25 57,25 Z" id="Shape"></path>
                        <path d="M68.9108042,47.5286597 C68.6970113,46.8447011 68.1289633,46.346254 67.4454282,46.2424339 L61.3547209,45.3187486 L58.6296138,39.5559038 C58.3238917,38.9093794 57.6920778,38.5 57.0000405,38.5 C56.3080033,38.5 55.6760123,38.9093794 55.3704673,39.5559038 L52.6453602,45.318933 L46.5546529,46.2426183 C45.8711178,46.3464384 45.3030698,46.8448855 45.0892769,47.5288441 C44.8753068,48.2128028 45.0529657,48.9638849 45.5469744,49.4665733 L49.9574499,53.9537034 L48.91594,60.2898637 C48.7993901,60.9996391 49.0799601,61.7166063 49.6396831,62.1396316 C50.1995833,62.5622882 50.9413934,62.6177941 51.553369,62.2816236 L57.0000405,59.2927852 L62.4467121,62.2816236 C62.7129348,62.4276724 63.0037782,62.4997749 63.2933817,62.4997749 C63.6697777,62.4997749 64.0438711,62.3784363 64.3602208,62.1396316 C64.9199438,61.7166063 65.2005138,60.9994547 65.0839639,60.2898637 L64.042454,53.9537034 L68.4529296,49.4665733 C68.9471154,48.9637005 69.1245971,48.2126184 68.9108042,47.5286597 Z" id="Shape" fill="#FFFFFF"></path>
                    </g>
                </g>
            </g>
        </g>
    </g>
</svg>