<?xml version="1.0" encoding="utf-8"?>
<!-- Generator: Adobe Illustrator 17.0.1, SVG Export Plug-In . SVG Version: 6.00 Build 0)  -->
<!DOCTYPE svg PUBLIC "-//W3C//DTD SVG 1.1//EN" "http://www.w3.org/Graphics/SVG/1.1/DTD/svg11.dtd">
<svg version="1.1" id="Слой_1" xmlns="http://www.w3.org/2000/svg" xmlns:xlink="http://www.w3.org/1999/xlink" x="0px" y="0px"
	 width="131.504px" height="34.824px" viewBox="7.619 4.072 131.504 34.824" enable-background="new 7.619 4.072 131.504 34.824"
	 xml:space="preserve">
<title>3C5A522D-84BB-4789-B0BB-D39964411123</title>
<desc>Created with sketchtool.</desc>
<g id="Web">
	<g id="_x30_5_x5F_Construct_x5F_Region_x5F_main" transform="translate(-93.000000, -21.000000)">
		<g id="img">
			<g id="header" transform="translate(93.000000, 21.000000)">
				<g id="Logo_ENG">
					<path id="Fill-1" fill="#FFFFFF" d="M59.648,12.81c-0.343,2.726-2.383,4.622-5.56,4.622c-3.972,0-6.282-2.672-6.282-6.68
						s2.311-6.68,6.282-6.68c3.051,0,5.019,1.769,5.452,4.225h-3.485c-0.216-0.848-0.956-1.264-1.967-1.264
						c-1.878,0-2.853,1.535-2.853,3.719c0,2.166,0.975,3.719,2.853,3.719c1.155,0,1.949-0.577,2.112-1.661H59.648z"/>
					<path id="Fill-3" fill="#FFFFFF" d="M68.04,12.503c0-1.3-0.56-2.365-1.86-2.365c-1.318,0-1.877,1.065-1.877,2.365
						c0,1.317,0.559,2.364,1.877,2.364C67.48,14.868,68.04,13.821,68.04,12.503 M71.181,12.503c0,3.033-1.986,4.928-5.001,4.928
						c-2.997,0-5.019-1.895-5.019-4.928s2.022-4.929,5.019-4.929C69.195,7.574,71.181,9.47,71.181,12.503"/>
					<path id="Fill-5" fill="#FFFFFF" d="M82.524,11.528v5.669h-3.142v-5.146c0-1.083-0.487-1.733-1.48-1.733
						c-1.065,0-1.661,0.903-1.661,1.932v4.946H73.1V7.809h3.033v0.813h0.506c0.577-0.705,1.317-1.047,2.491-1.047
						C81.495,7.574,82.524,9.054,82.524,11.528"/>
					<path id="Fill-7" fill="#FFFFFF" d="M89.972,11.275c1.877,0.234,3.195,1.119,3.195,3.033c0,1.607-1.426,3.123-4.369,3.123
						c-2.942,0-4.405-1.318-4.568-3.322h3.106c0.09,0.722,0.578,1.084,1.498,1.084c0.776,0,1.192-0.307,1.192-0.813
						c0-0.524-0.361-0.722-1.137-0.848l-1.661-0.271c-1.589-0.271-2.69-1.047-2.69-2.636c0-1.643,1.245-3.051,4.17-3.051
						c2.455,0,3.936,1.174,4.153,2.888h-3.087c-0.09-0.451-0.469-0.686-1.138-0.686c-0.523,0-0.957,0.216-0.957,0.632
						s0.271,0.578,0.758,0.65L89.972,11.275z"/>
					<path id="Fill-9" fill="#FFFFFF" d="M100.454,7.809v2.564h-1.877v3.394c0,0.433,0.253,0.812,0.921,0.812h0.956v2.618h-1.011
						c-2.221,0-4.008-0.56-4.008-3.087v-3.737h-1.227V7.809h1.227V5.282h3.142v2.527H100.454z"/>
					<path id="Fill-11" fill="#FFFFFF" d="M109.562,10.715h-0.993c-2.022,0-2.798,0.975-2.798,2.708v3.774h-3.142V7.809h3.034V8.82
						h0.505c0.198-0.343,0.812-1.011,2.401-1.011h0.993V10.715z"/>
					<path id="Fill-13" fill="#FFFFFF" d="M111.015,13.478V7.809h3.142v5.146c0,1.084,0.487,1.733,1.48,1.733
						c1.065,0,1.661-0.902,1.661-1.932V7.809h3.142v9.388h-3.033v-0.813h-0.506c-0.577,0.705-1.317,1.047-2.491,1.047
						C112.045,17.431,111.015,15.951,111.015,13.478"/>
					<path id="Fill-15" fill="#FFFFFF" d="M131.693,13.839c-0.199,2.131-2.023,3.593-4.478,3.593c-2.906,0-4.857-1.841-4.857-4.928
						c0-3.052,1.95-4.929,4.857-4.929c2.437,0,4.189,1.354,4.387,3.412h-3.087c-0.162-0.559-0.596-0.848-1.282-0.848
						c-1.282,0-1.733,1.084-1.733,2.365c0,1.299,0.469,2.364,1.733,2.364c0.776,0,1.282-0.379,1.373-1.029H131.693z"/>
					<path id="Fill-17" fill="#FFFFFF" d="M139.123,7.809v2.564h-1.878v3.394c0,0.433,0.253,0.812,0.921,0.812h0.956v2.618h-1.011
						c-2.221,0-4.008-0.56-4.008-3.087v-3.737h-1.227V7.809h1.227V5.282h3.142v2.527H139.123z"/>
					<path id="Fill-19" fill="#FFFFFF" d="M54.215,27.738c1.246,0,1.733-0.487,1.733-1.337c0-0.866-0.487-1.317-1.733-1.317h-2.492
						v2.654H54.215z M54.666,22.159c2.979,0,4.712,1.553,4.712,4.171c0,1.643-0.65,2.834-1.877,3.538l1.86,5.182h-3.358
						l-1.607-4.514h-2.672v4.514h-3.358V22.159H54.666z"/>
					<path id="Fill-21" fill="#FFFFFF" d="M64.057,28.893h3.159c-0.162-0.813-0.686-1.227-1.534-1.227
						C64.762,27.666,64.291,28.099,64.057,28.893L64.057,28.893z M70.358,32.017c-0.416,2.04-1.914,3.267-4.604,3.267
						c-2.979,0-4.929-1.841-4.929-4.928c0-3.07,1.914-4.929,4.857-4.929c2.979,0,4.748,1.805,4.748,4.622v0.722h-6.499
						c0.126,1.282,0.705,1.95,1.877,1.95c0.776,0,1.174-0.216,1.373-0.704H70.358z"/>
					<path id="Fill-23" fill="#FFFFFF" d="M78.805,30.139c0-1.227-0.685-2.148-1.914-2.148c-1.174,0-1.859,0.975-1.859,2.148
						c0,1.174,0.686,2.149,1.859,2.149C78.12,32.288,78.805,31.367,78.805,30.139L78.805,30.139z M81.821,25.662v8.919
						c0,2.708-2.095,4.315-4.911,4.315c-2.672,0-4.532-1.137-4.675-3.322h3.105c0.073,0.56,0.523,0.957,1.534,0.957
						c1.373,0,1.805-1.083,1.805-2.256v-0.451H78.21c-0.361,0.559-1.029,1.029-2.256,1.029c-2.474,0-4.063-1.968-4.063-4.712
						c0-2.744,1.607-4.712,4.08-4.712c1.21,0,2.023,0.523,2.311,1.029h0.506v-0.794h3.033V25.662z"/>
					<path id="Fill-25" fill="#FFFFFF" d="M84.215,35.05h3.142v-9.388h-3.142V35.05z M84.215,24.543h3.142v-2.618h-3.142V24.543z"/>
					<path id="Fill-27" fill="#FFFFFF" d="M96.146,30.356c0-1.3-0.56-2.365-1.86-2.365c-1.318,0-1.877,1.065-1.877,2.365
						c0,1.317,0.559,2.364,1.877,2.364C95.586,32.721,96.146,31.673,96.146,30.356 M99.287,30.356c0,3.033-1.986,4.928-5.001,4.928
						c-2.997,0-5.019-1.895-5.019-4.928s2.022-4.929,5.019-4.929C97.301,25.427,99.287,27.323,99.287,30.356"/>
					<path id="Fill-28" fill="#FFFFFF" d="M110.63,29.381v5.669h-3.142v-5.146c0-1.083-0.487-1.733-1.48-1.733
						c-1.065,0-1.661,0.902-1.661,1.932v4.946h-3.142v-9.388h3.033v0.813h0.506c0.577-0.705,1.317-1.047,2.491-1.047
						C109.601,25.427,110.63,26.907,110.63,29.381"/>
				</g>
			</g>
		</g>
	</g>
</g>
<path fill="#FFFFFF" d="M7.619,14.473v20.585h20.584V14.473H7.619z M25.631,32.485h-15.44v-15.44h15.44V32.485z"/>
<path fill="#FFFFFF" d="M12.764,9.327v20.585h20.584V9.327H12.764z M30.776,27.339h-15.44V11.9h15.44V27.339z"/>
<path fill="#FFFFFF" d="M17.912,4.18v20.585h20.585V4.18H17.912z M35.924,22.192h-15.44V6.752h15.44V22.192z"/>
</svg>
