<?xml version="1.0" standalone="no"?>
<!DOCTYPE svg PUBLIC "-//W3C//DTD SVG 20010904//EN"
 "http://www.w3.org/TR/2001/REC-SVG-20010904/DTD/svg10.dtd">
<svg version="1.0" xmlns="http://www.w3.org/2000/svg"
 width="700.000000pt" height="700.000000pt" viewBox="0 0 700.000000 700.000000"
 preserveAspectRatio="xMidYMid meet">
<metadata>
Created by potrace 1.11, written by Peter Selinger 2001-2013
</metadata>
<g transform="translate(0.000000,700.000000) scale(0.100000,-0.100000)"
fill="#000000" stroke="none">
<path d="M2338 6993 c0 -5 -2 -262 -3 -573 -2 -311 -3 -570 -4 -576 -1 -8
-164 -11 -575 -11 -315 0 -577 -3 -582 -6 -5 -3 -9 -255 -8 -580 0 -573 0
-575 -20 -579 -12 -2 -274 -3 -583 -2 l-563 0 0 -2333 0 -2333 2333 0 2333 0
-1 568 c0 312 1 574 3 583 3 13 66 15 583 15 l579 -1 1 55 c1 30 1 292 1 583
-1 487 1 527 16 528 9 0 272 1 585 1 l567 1 0 2334 0 2333 -2330 0 c-1282 0
-2331 -3 -2332 -7z m4078 -2325 c0 -962 -2 -1748 -5 -1749 -17 -3 -558 -4
-568 -1 -9 3 -12 317 -12 1335 0 733 0 1388 -1 1457 l0 125 -1455 -1 c-800 0
-1455 2 -1456 5 -5 28 -2 546 3 560 6 17 80 18 1750 17 l1743 -1 1 -1747z
m-4084 570 c3 -11 2 -472 -1 -548 l-1 -25 -287 1 -288 0 -3 292 -2 292 289 0
c222 0 290 -3 293 -12z m2918 -1153 c0 -925 -3 -1165 -12 -1166 -80 -7 -568
-2 -571 6 -1 6 -2 399 -2 876 l1 865 -869 0 c-808 -1 -870 0 -876 16 -5 13 -7
526 -2 561 1 4 525 7 1166 7 l1165 0 0 -1165z m-4084 -1451 c0 -798 3 -1454 6
-1460 4 -5 554 -9 1457 -8 1011 0 1451 -3 1453 -10 3 -10 2 -516 -1 -557 -1
-14 -168 -15 -1749 -15 l-1747 1 -1 1747 c-1 1560 1 1747 14 1750 9 2 140 3
291 3 l276 -1 1 -1450z m1159 1444 c6 -4 10 -318 9 -875 l0 -870 869 1 c561 1
871 -2 875 -9 3 -5 6 -137 7 -292 l0 -283 -1167 0 -1168 0 0 1163 c0 640 2
1166 4 1168 7 6 560 4 571 -3z m1755 0 c4 -5 5 -1112 1 -1153 -1 -12 -1146
-13 -1158 -2 -12 13 -10 1139 3 1151 12 12 1145 16 1154 4z m1153 -1747 c16
-1 17 -22 17 -291 l0 -290 -292 0 -293 0 1 273 c2 331 1 305 21 309 14 2 487
2 546 -1z"/>
</g>
</svg>
