<svg width="139" height="14" viewBox="0 0 139 14" xmlns="http://www.w3.org/2000/svg"><title>FC376C9B-DC9D-4C32-B380-C94FCFF7345A</title><g fill="none"><path d="M.034 1.218h4.743c3.16 0 5.805 1.14 5.805 5.943 0 4.004-1.806 6.081-5.09 6.081H.034V1.218m4.822 9.265c2.007 0 2.244-2.214 2.244-3.253 0-1.141-.264-3.202-2.147-3.202H3.489v6.455h1.37m7.372 2.758V1.218h8.7v2.638h-5.214v1.789h4.872V8.25h-4.886v2.384h5.695v2.605H12.23m17.898-8.292c-.592-.971-1.945-1.226-2.88-1.226-.28 0-1.246.05-1.246.783 0 .58.531.75 1.93 1.005 1.852.341 4.455.869 4.455 3.713 0 3.1-2.474 4.376-5.09 4.376-2.333 0-4.403-.699-5.694-2.64l2.662-1.875c.53 1.192 1.976 1.584 3.066 1.584 1.042 0 1.65-.323 1.65-.92 0-.697-.7-.834-2.677-1.21C24 8.098 22.522 7.04 22.522 4.91c0-3.218 2.785-4.087 4.81-4.087 1.96 0 3.859.648 4.994 2.13l-2.193 1.994m3.911 8.294V1.218h3.488V13.24zM47.427 5.39c-.187-1.243-1.075-1.786-2.132-1.786-1.992 0-2.599 1.77-2.599 3.44 0 2.726 1.26 3.645 2.692 3.645.887 0 1.962-.46 2.07-1.687h-2.039v-2.42h5.043v6.66h-2.599v-.835a5.21 5.21 0 0 1-3.3 1.159c-2.288 0-5.398-1.84-5.398-6.25 0-3.542 2.085-6.593 5.851-6.593 2.21 0 4.87 1.177 5.508 3.714l-3.097.953m12.333 7.851l-3.627-6.898v6.897h-3.237V1.218h3.688l3.674 6.812V1.218h3.253V13.24z" fill="#FFF"/><path fill="#F00" d="M66.69 8.885V5.59h4.443v3.296h-4.444"/><path d="M73.924 13.241V1.218h3.47v8.991h4.248v3.032zm17.672 0l-.483-1.668h-3.828L86.8 13.24h-3.734l4.201-12.023h3.953l4.108 12.023h-3.733m-2.365-8.6l-1.197 4.24h2.365L89.23 4.64m14.075-3.422c1.65 0 3.548.663 3.548 3.048 0 1.192-.577 2.244-1.712 2.758 1.37.325 2.023 1.45 2.023 2.777 0 1.635-.717 3.44-3.547 3.44h-6.802V1.218h6.49m-3.035 9.435h2.21c.67 0 1.152-.442 1.152-1.158 0-.834-.59-1.175-1.229-1.175h-2.133v2.333m.016-4.854h1.915c.56 0 1.134-.153 1.134-1.022 0-.715-.482-1.022-1.01-1.022h-2.039v2.044" fill="#FFF"/><path fill="#F00" d="M110.016 13.365v-3.327h3.332v3.327h-3.332"/><path d="M122.658 1.218c1.852 0 3.906.8 3.906 3.848 0 1.566-.624 2.64-2.256 3.32l2.691 4.854h-3.89L120.977 9h-1.012v4.24h-3.486V1.218h6.179m-1.244 5.313c.73 0 1.68-.119 1.68-1.396 0-1.329-1.01-1.398-1.711-1.398h-1.417v2.794h1.448m10.676-5.313v7.614c0 1.19.544 1.786 1.51 1.786.995 0 1.525-.629 1.525-1.89v-7.51h3.501V8.42c0 3.456-2.244 5.143-5.059 5.143-2.628 0-4.963-1.313-4.963-4.802V1.218h3.486" fill="#FFF"/></g></svg>