<svg xmlns="http://www.w3.org/2000/svg" width="131.504" height="34.824" viewBox="7.619 4.072 131.504 34.824"><title>3C5A522D-84BB-4789-B0BB-D39964411123</title><path d="M59.648 12.81c-.343 2.726-2.383 4.622-5.56 4.622-3.972 0-6.282-2.672-6.282-6.68s2.311-6.68 6.282-6.68c3.051 0 5.019 1.769 5.452 4.225h-3.485c-.216-.848-.956-1.264-1.967-1.264-1.878 0-2.853 1.535-2.853 3.719 0 2.166.975 3.719 2.853 3.719 1.155 0 1.949-.577 2.112-1.661h3.448zm8.392-.307c0-1.3-.56-2.365-1.86-2.365-1.318 0-1.877 1.065-1.877 2.365 0 1.317.559 2.364 1.877 2.364 1.3.001 1.86-1.046 1.86-2.364m3.141 0c0 3.033-1.986 4.928-5.001 4.928-2.997 0-5.019-1.895-5.019-4.928s2.022-4.929 5.019-4.929c3.015 0 5.001 1.896 5.001 4.929m11.343-.975v5.669h-3.142v-5.146c0-1.083-.487-1.733-1.48-1.733-1.065 0-1.661.903-1.661 1.932v4.946H73.1V7.809h3.033v.813h.506c.577-.705 1.317-1.047 2.491-1.047 2.365-.001 3.394 1.479 3.394 3.953m7.448-.253c1.877.234 3.195 1.119 3.195 3.033 0 1.607-1.426 3.123-4.369 3.123-2.942 0-4.405-1.318-4.568-3.322h3.106c.09.722.578 1.084 1.498 1.084.776 0 1.192-.307 1.192-.813 0-.524-.361-.722-1.137-.848l-1.661-.271c-1.589-.271-2.69-1.047-2.69-2.636 0-1.643 1.245-3.051 4.17-3.051 2.455 0 3.936 1.174 4.153 2.888h-3.087c-.09-.451-.469-.686-1.138-.686-.523 0-.957.216-.957.632s.271.578.758.65l1.535.217zm10.482-3.466v2.564h-1.877v3.394c0 .433.253.812.921.812h.956v2.618h-1.011c-2.221 0-4.008-.56-4.008-3.087v-3.737h-1.227V7.809h1.227V5.282h3.142v2.527h1.877zm9.108 2.906h-.993c-2.022 0-2.798.975-2.798 2.708v3.774h-3.142V7.809h3.034V8.82h.505c.198-.343.812-1.011 2.401-1.011h.993v2.906zm1.453 2.763V7.809h3.142v5.146c0 1.084.487 1.733 1.48 1.733 1.065 0 1.661-.902 1.661-1.932V7.809h3.142v9.388h-3.033v-.813h-.506c-.577.705-1.317 1.047-2.491 1.047-2.365 0-3.395-1.48-3.395-3.953m20.678.361c-.199 2.131-2.023 3.593-4.478 3.593-2.906 0-4.857-1.841-4.857-4.928 0-3.052 1.95-4.929 4.857-4.929 2.437 0 4.189 1.354 4.387 3.412h-3.087c-.162-.559-.596-.848-1.282-.848-1.282 0-1.733 1.084-1.733 2.365 0 1.299.469 2.364 1.733 2.364.776 0 1.282-.379 1.373-1.029h3.087zm7.43-6.03v2.564h-1.878v3.394c0 .433.253.812.921.812h.956v2.618h-1.011c-2.221 0-4.008-.56-4.008-3.087v-3.737h-1.227V7.809h1.227V5.282h3.142v2.527h1.878zM54.215 27.738c1.246 0 1.733-.487 1.733-1.337 0-.866-.487-1.317-1.733-1.317h-2.492v2.654h2.492zm.451-5.579c2.979 0 4.712 1.553 4.712 4.171 0 1.643-.65 2.834-1.877 3.538l1.86 5.182h-3.358l-1.607-4.514h-2.672v4.514h-3.358V22.159h6.3zm9.391 6.734h3.159c-.162-.813-.686-1.227-1.534-1.227-.92 0-1.391.433-1.625 1.227zm6.301 3.124c-.416 2.04-1.914 3.267-4.604 3.267-2.979 0-4.929-1.841-4.929-4.928 0-3.07 1.914-4.929 4.857-4.929 2.979 0 4.748 1.805 4.748 4.622v.722h-6.499c.126 1.282.705 1.95 1.877 1.95.776 0 1.174-.216 1.373-.704h3.177zm8.447-1.878c0-1.227-.685-2.148-1.914-2.148-1.174 0-1.859.975-1.859 2.148 0 1.174.686 2.149 1.859 2.149 1.229 0 1.914-.921 1.914-2.149zm3.016-4.477v8.919c0 2.708-2.095 4.315-4.911 4.315-2.672 0-4.532-1.137-4.675-3.322h3.105c.073.56.523.957 1.534.957 1.373 0 1.805-1.083 1.805-2.256v-.451h-.469c-.361.559-1.029 1.029-2.256 1.029-2.474 0-4.063-1.968-4.063-4.712 0-2.744 1.607-4.712 4.08-4.712 1.21 0 2.023.523 2.311 1.029h.506v-.794h3.033v-.002zm2.394 9.388h3.142v-9.388h-3.142v9.388zm0-10.507h3.142v-2.618h-3.142v2.618zm11.931 5.813c0-1.3-.56-2.365-1.86-2.365-1.318 0-1.877 1.065-1.877 2.365 0 1.317.559 2.364 1.877 2.364 1.3.001 1.86-1.047 1.86-2.364m3.141 0c0 3.033-1.986 4.928-5.001 4.928-2.997 0-5.019-1.895-5.019-4.928s2.022-4.929 5.019-4.929c3.015 0 5.001 1.896 5.001 4.929m11.343-.975v5.669h-3.142v-5.146c0-1.083-.487-1.733-1.48-1.733-1.065 0-1.661.902-1.661 1.932v4.946h-3.142v-9.388h3.033v.813h.506c.577-.705 1.317-1.047 2.491-1.047 2.366 0 3.395 1.48 3.395 3.954M7.619 14.473v20.585h20.584V14.473H7.619zm18.012 18.012h-15.44v-15.44h15.44v15.44z" fill="#FFF"/><path fill="#FFF" d="M12.764 9.327v20.585h20.584V9.327H12.764zm18.012 18.012h-15.44V11.9h15.44v15.439z"/><path fill="#FFF" d="M17.912 4.18v20.585h20.585V4.18H17.912zm18.012 18.012h-15.44V6.752h15.44v15.44z"/></svg>