<svg xmlns="http://www.w3.org/2000/svg" width="489.999" height="560" viewBox="235 0 489.999 560"><path fill="#E62728" d="M269.999 0h297.377l157.622 157.01V525c0 19.337-15.679 35-35 35h-420c-19.321 0-35-15.663-35-35V35C235 15.663 250.681 0 269.999 0z"/><path fill="#ff7359" d="M724.493 157.499H602.501c-19.321 0-35-15.679-35-35V.349l156.992 157.15z"/><path fill="#FFF" d="M593.715 265.352c5.863 0 8.733-5.11 8.733-10.062 0-5.128-2.993-10.08-8.733-10.08h-33.39c-6.528 0-10.167 5.407-10.167 11.375v82.057c0 7.315 4.165 11.375 9.8 11.375 5.601 0 9.783-4.06 9.783-11.375V316.12h20.195c6.265 0 9.398-5.128 9.398-10.22 0-4.987-3.133-9.941-9.398-9.941h-20.195v-30.607h23.974zm-112.858-20.143h-24.43c-6.633 0-11.341 4.55-11.341 11.304v82.198c0 8.382 6.772 11.007 11.619 11.007h25.638c30.344 0 50.382-19.967 50.382-50.786-.015-32.582-18.88-53.723-51.868-53.723zm1.174 84.247h-14.893v-63.98h13.423c20.318 0 29.155 13.633 29.155 32.445-.001 17.605-8.682 31.535-27.685 31.535zm-89.496-84.247h-24.202c-6.843 0-10.658 4.514-10.658 11.375v82.057c0 7.315 4.375 11.375 10.254 11.375s10.254-4.06 10.254-11.375v-23.958h15.172c18.725 0 34.178-13.265 34.178-34.598.002-20.875-14.908-34.876-34.998-34.876zm-.402 50.227h-13.948v-30.958h13.948c8.61 0 14.087 6.72 14.087 15.487-.017 8.751-5.477 15.471-14.087 15.471z"/></svg>