<svg width="113" height="113" viewBox="0 0 113 113" xmlns="http://www.w3.org/2000/svg"><title>27EB0E60-8343-41DD-AF71-EDA8E92EF786</title><g stroke="#666" stroke-width="2" fill="none" fill-rule="evenodd"><path d="M93.96 51.14c-.027-1.405-.141-3.183-.341-5.331-.202-2.15-.49-4.07-.864-5.762-.43-1.901-1.36-3.503-2.793-4.805-1.433-1.302-3.1-2.057-5.002-2.266C79.013 32.326 70.026 32 58 32c-12.027 0-21.013.326-26.96.976-1.902.209-3.563.964-4.982 2.266-1.42 1.302-2.344 2.904-2.773 4.805-.4 1.693-.703 3.613-.903 5.762-.201 2.148-.315 3.925-.342 5.332A323.35 323.35 0 0 0 22 57c0 2.5.013 4.453.04 5.86.027 1.406.141 3.183.342 5.331.2 2.149.489 4.07.864 5.762.428 1.902 1.359 3.503 2.792 4.805 1.433 1.302 3.101 2.057 5.002 2.265C36.987 81.675 45.973 82 58 82c12.027 0 21.013-.325 26.96-.977 1.902-.208 3.562-.963 4.982-2.265 1.42-1.302 2.344-2.904 2.772-4.805.402-1.692.703-3.613.905-5.762.2-2.148.314-3.925.34-5.332C93.987 61.453 94 59.5 94 57s-.013-4.453-.04-5.86z"/><path d="M64.771 58.13l-9.6 6.662a.995.995 0 0 1-.638.208c-.187 0-.381-.056-.581-.167-.413-.25-.619-.638-.619-1.165V50.343c0-.527.207-.916.619-1.165.425-.25.831-.236 1.219.041l9.6 6.663c.375.235.562.61.562 1.124 0 .513-.187.888-.562 1.124z" fill="#FFF"/></g></svg>