<svg width="113" height="113" viewBox="0 0 113 113" xmlns="http://www.w3.org/2000/svg"><title>AB26E085-5C11-4682-A00D-588F14C433DC</title><g stroke="#666" stroke-width="2" fill="none" fill-rule="evenodd" stroke-linecap="round" stroke-linejoin="round"><path d="M40.976 93.053l3.244-20.39-15.757-22.707 9.269-20.854c.618-.927 1.544-1.081 2.78-.463 1.236.618 9.268 5.097 24.098 13.439l-8.342 10.195M43.83 29.565l6.804-11.658 9.415 6.33M53.951 34.2l8.342-12.05 9.658 7.879-8.195 11.049m7.342-8.268l7.878 6.487v1.39l-13.44 18.074"/><path d="M78.976 42.078L85 47.638l-.463 1.854-8.196 13.293-4.707 2.463-26.951-19.853M79.902 57.37l-2.78 12.05-6.488 6.95.927 16.683"/></g></svg>