<svg width="113" height="113" viewBox="0 0 113 113" xmlns="http://www.w3.org/2000/svg"><title>9FA6C922-E267-4757-AB66-85C188D6AF0C</title><g stroke="#666" stroke-width="2" fill="none"><path d="M57 25c-14.336 0-26 11.38-26 25.368 0 20.84 23.412 41.19 24.409 42.046A2.44 2.44 0 0 0 57 93c.568 0 1.136-.195 1.591-.586C59.587 91.558 83 71.21 83 50.368 83 36.38 71.336 25 57 25z"/><path d="M68.91 47.529a1.839 1.839 0 0 0-1.465-1.287l-6.09-.923-2.725-5.763A1.81 1.81 0 0 0 57 38.5a1.81 1.81 0 0 0-1.63 1.056l-2.725 5.763-6.09.924a1.839 1.839 0 0 0-1.466 1.286 1.945 1.945 0 0 0 .458 1.938l4.41 4.487-1.041 6.336c-.117.71.164 1.427.724 1.85.56.422 1.301.478 1.913.142L57 59.292l5.447 2.99a1.758 1.758 0 0 0 1.913-.142c.56-.423.84-1.14.724-1.85l-1.042-6.336 4.41-4.487a1.946 1.946 0 0 0 .459-1.938z" fill="#FFF"/></g></svg>