<svg width="113" height="113" viewBox="0 0 113 113" xmlns="http://www.w3.org/2000/svg"><title>6A42B1C8-5599-4CE7-9258-17361346402B</title><g fill="none" fill-rule="evenodd"><rect stroke="#666" x="40.5" y="81.5" width="33" height="4" rx="1"/><circle fill="#282828" cx="57" cy="37" r="1"/><path fill="#666" d="M24 40h66v1H24z"/><path d="M23 81h68V34a2 2 0 0 0-2-2H25a2 2 0 0 0-2 2v47zm-5 0a2 2 0 0 0-2 2v3.5a5.5 5.5 0 0 0 5.5 5.5h71a5.5 5.5 0 0 0 5.5-5.5V83a2 2 0 0 0-2-2H18z" stroke="#666" stroke-width="2"/></g></svg>