<?xml version="1.0" encoding="UTF-8" standalone="no"?>
<svg width="139px" height="14px" viewBox="0 0 139 14" version="1.1" xmlns="http://www.w3.org/2000/svg" xmlns:xlink="http://www.w3.org/1999/xlink">
    <!-- Generator: sketchtool 46 (44423) - http://www.bohemiancoding.com/sketch -->
    <title>FC376C9B-DC9D-4C32-B380-C94FCFF7345A</title>
    <desc>Created with sketchtool.</desc>
    <defs></defs>
    <g id="Symbols" stroke="none" stroke-width="1" fill="none" fill-rule="evenodd">
        <g id="footer" transform="translate(-1230.000000, -339.000000)" fill-rule="nonzero">
            <g id="logo">
                <g transform="translate(0.000000, 55.000000)">
                    <g transform="translate(1095.000000, 278.000000)">
                        <g id="dsgnlab-logo" transform="translate(135.000000, 6.000000)">
                            <g id="Group" fill="#FFFFFF">
                                <path d="M0.0344388664,1.21758057 L4.77700405,1.21758057 C7.93649231,1.21758057 10.5816194,2.35850688 10.5816194,7.16106235 C10.5816194,11.1648583 8.77635628,13.2422996 5.49244372,13.2422996 L0.0344388664,13.2422996 L0.0344388664,1.21758057 M4.85588016,10.4827466 C6.86333279,10.4827466 7.09996113,8.26866073 7.09996113,7.22994008 C7.09996113,6.08901377 6.83555951,4.02823644 4.95253117,4.02823644 L3.48943482,4.02823644 L3.48943482,10.4827466 L4.85921296,10.4827466" id="Shape"></path>
                                <polyline id="Shape" points="12.2313522 13.2411887 12.2313522 1.21758057 20.9310543 1.21758057 20.9310543 3.85604211 15.7174543 3.85604211 15.7174543 5.6446413 20.5888874 5.6446413 20.5888874 8.25088583 15.7030121 8.25088583 15.7030121 10.6349441 21.3976453 10.6349441 21.3976453 13.2400777 12.2313522 13.2400777"></polyline>
                                <path d="M30.1284534,4.94697652 C29.5363271,3.97602267 28.183213,3.7205085 27.2478089,3.7205085 C26.9678543,3.7205085 26.0024551,3.77161134 26.0024551,4.50371498 C26.0024551,5.08362105 26.5334802,5.25359352 27.9321425,5.50910769 C29.7840648,5.85016356 32.3869765,6.37785587 32.3869765,9.22183968 C32.3869765,12.3213377 29.9129328,13.5977976 27.2978008,13.5977976 C24.9637344,13.5977976 22.8940696,12.8990219 21.6031676,10.9582251 L24.2649587,9.08297328 C24.7948729,10.2750024 26.2413053,10.6671611 27.3311287,10.6671611 C28.3731822,10.6671611 28.9808615,10.3438802 28.9808615,9.74731012 C28.9808615,9.04964534 28.2809749,8.91300081 26.3035174,8.53750607 C24.0005571,8.0964664 22.5219077,7.03885992 22.5219077,4.91031579 C22.5219077,1.69194818 25.3070121,0.8232 27.3311287,0.8232 C29.2919223,0.8232 31.1905036,1.47087287 32.3258753,2.95285506 L30.1328972,4.94697652" id="Shape"></path>
                                <polygon id="Shape" points="34.0444858 13.2411887 34.0444858 1.21758057 37.5316988 1.21758057 37.5316988 13.2411887"></polygon>
                                <path d="M47.4267628,5.39023806 C47.2401263,4.14710607 46.3524923,3.60386073 45.2948858,3.60386073 C43.3029862,3.60386073 42.6964178,5.37468502 42.6964178,7.04441457 C42.6964178,9.76952874 43.9562138,10.6893798 45.388204,10.6893798 C46.2747271,10.6893798 47.3501085,10.2294543 47.4578688,9.0018753 L45.4193101,9.0018753 L45.4193101,6.58226721 L50.4618267,6.58226721 L50.4618267,13.2411887 L47.8633587,13.2411887 L47.8633587,12.4068794 C47.1923563,12.9523466 46.0736486,13.5655806 44.5627822,13.5655806 C42.2753749,13.5655806 39.1647676,11.7258785 39.1647676,7.31548178 C39.1647676,3.7738332 41.2499854,0.723216194 45.0160421,0.723216194 C47.2256842,0.723216194 49.8863644,1.89969231 50.5240389,4.43705911 L47.4267628,5.39023806" id="Shape"></path>
                                <polygon id="Shape" points="59.7592097 13.2411887 56.1331304 6.343417 56.1331304 13.2400777 52.8958769 13.2400777 52.8958769 1.21758057 56.5841684 1.21758057 60.2580178 8.02981053 60.2580178 1.21758057 63.5108243 1.21758057 63.5108243 13.2411887"></polygon>
                            </g>
                            <polyline id="Shape" fill="#FF0000" points="66.6891984 8.88522753 66.6891984 5.58909474 71.1329231 5.58909474 71.1329231 8.88522753 66.6891984 8.88522753"></polyline>
                            <g id="Group" transform="translate(73.321457, 1.110931)" fill="#FFFFFF">
                                <polygon id="Shape" points="0.602124696 12.1302575 0.602124696 0.106649393 4.07267368 0.106649393 4.07267368 9.09852632 8.32087449 9.09852632 8.32087449 12.1302575"></polygon>
                                <path d="M18.2748178,12.1302575 L17.7915628,10.4616389 L13.9632939,10.4616389 L13.4800389,12.1302575 L9.74508826,12.1302575 L13.94663,0.106649393 L17.8993231,0.106649393 L22.0075466,12.1302575 L18.2748178,12.1302575 M15.9096453,3.52942834 L14.7120615,7.76985263 L17.077234,7.76985263 L15.9096453,3.52942834" id="Shape"></path>
                                <path d="M29.9840324,0.106649393 C31.6326543,0.106649393 33.5312356,0.769875304 33.5312356,3.15504453 C33.5312356,4.34707368 32.9546623,5.39912551 31.8192907,5.91348664 C33.1890688,6.23787854 33.8422964,7.36214089 33.8422964,8.68970364 C33.8422964,10.3249943 33.1257457,12.1302575 30.2950931,12.1302575 L23.4939725,12.1302575 L23.4939725,0.106649393 L29.9840324,0.106649393 M26.9489684,9.54178785 L29.1586105,9.54178785 C29.828502,9.54178785 30.3106462,9.09963725 30.3106462,8.38419757 C30.3106462,7.54988826 29.7196308,7.20883239 29.0819563,7.20883239 L26.9489684,7.20883239 L26.9489684,9.54178785 M26.9645215,4.68812955 L28.8797668,4.68812955 C29.4396761,4.68812955 30.0140275,4.53482105 30.0140275,3.66607287 C30.0140275,2.9506332 29.5318834,2.64401619 29.0030802,2.64401619 L26.9645215,2.64401619 L26.9645215,4.68812955" id="Shape"></path>
                            </g>
                            <polyline id="Shape" fill="#FF0000" points="110.015514 13.364502 110.015514 10.0383741 113.348308 10.0383741 113.348308 13.364502 110.015514 13.364502"></polyline>
                            <g id="Group" transform="translate(116.273684, 1.110931)" fill="#FFFFFF">
                                <path d="M6.38422672,0.106649393 C8.23614899,0.106649393 10.2902607,0.906519838 10.2902607,3.95491498 C10.2902607,5.52132794 9.66591741,6.59448745 8.03395951,7.27548826 L10.7257457,12.1291466 L6.83526478,12.1291466 L4.70338785,7.88872227 L3.69132955,7.88872227 L3.69132955,12.1291466 L0.20522753,12.1291466 L0.20522753,0.106649393 L6.38422672,0.106649393 M5.13998381,5.4202332 C5.87097652,5.4202332 6.82082267,5.30136356 6.82082267,4.02379271 C6.82082267,2.69511903 5.8098753,2.6262413 5.10887773,2.6262413 L3.69244049,2.6262413 L3.69244049,5.4202332 L5.13998381,5.4202332" id="Shape"></path>
                                <path d="M15.8160324,0.106649393 L15.8160324,7.72097166 C15.8160324,8.91188988 16.3603887,9.50734899 17.3257879,9.50734899 C18.3211822,9.50734899 18.8510964,8.87856194 18.8510964,7.61654413 L18.8510964,0.106649393 L22.3527514,0.106649393 L22.3527514,7.30992713 C22.3527514,10.766034 20.1086704,12.4535385 17.2935709,12.4535385 C14.6651077,12.4535385 12.3299304,11.1404178 12.3299304,7.650983 L12.3299304,0.106649393 L15.8160324,0.106649393" id="Shape"></path>
                            </g>
                        </g>
                    </g>
                </g>
            </g>
        </g>
    </g>
</svg>